<mxfile host="app.diagrams.net" agent="Mozilla/5.0 (Windows NT 10.0; Win64; x64) AppleWebKit/537.36 (KHTML, like Gecko) Chrome/133.0.0.0 Safari/537.36 Edg/133.0.0.0" version="26.0.12">
  <diagram name="Page-1" id="PPpTGkr6xeQLACw-c4y5">
    <mxGraphModel dx="1042" dy="565" grid="1" gridSize="10" guides="1" tooltips="1" connect="1" arrows="1" fold="1" page="1" pageScale="1" pageWidth="827" pageHeight="1169" math="0" shadow="0">
      <root>
        <mxCell id="0" />
        <mxCell id="1" parent="0" />
        <mxCell id="cEEI7wRpShsSlFW6rlsJ-1" value="" style="whiteSpace=wrap;html=1;aspect=fixed;fillColor=#ffe6cc;strokeColor=#d79b00;" parent="1" vertex="1">
          <mxGeometry x="210" y="140" width="420" height="420" as="geometry" />
        </mxCell>
        <mxCell id="cEEI7wRpShsSlFW6rlsJ-2" value="" style="rounded=0;whiteSpace=wrap;html=1;" parent="1" vertex="1">
          <mxGeometry x="540" y="140" width="90" height="30" as="geometry" />
        </mxCell>
        <mxCell id="cEEI7wRpShsSlFW6rlsJ-3" value="X" style="rounded=0;whiteSpace=wrap;html=1;" parent="1" vertex="1">
          <mxGeometry x="600" y="140" width="30" height="30" as="geometry" />
        </mxCell>
        <mxCell id="cEEI7wRpShsSlFW6rlsJ-4" value="" style="rounded=0;whiteSpace=wrap;html=1;" parent="1" vertex="1">
          <mxGeometry x="570" y="140" width="30" height="30" as="geometry" />
        </mxCell>
        <mxCell id="cEEI7wRpShsSlFW6rlsJ-5" value="---" style="rounded=0;whiteSpace=wrap;html=1;" parent="1" vertex="1">
          <mxGeometry x="540" y="140" width="30" height="30" as="geometry" />
        </mxCell>
        <mxCell id="cEEI7wRpShsSlFW6rlsJ-6" value="" style="rounded=0;whiteSpace=wrap;html=1;" parent="1" vertex="1">
          <mxGeometry x="575" y="150" width="20" height="10" as="geometry" />
        </mxCell>
        <mxCell id="cEEI7wRpShsSlFW6rlsJ-10" value="Login&amp;nbsp;" style="text;html=1;align=center;verticalAlign=middle;whiteSpace=wrap;rounded=0;fontSize=20;" parent="1" vertex="1">
          <mxGeometry x="357" y="200" width="126" height="50" as="geometry" />
        </mxCell>
        <mxCell id="cEEI7wRpShsSlFW6rlsJ-11" value="Username:" style="text;html=1;align=center;verticalAlign=middle;whiteSpace=wrap;rounded=0;" parent="1" vertex="1">
          <mxGeometry x="270" y="290" width="60" height="30" as="geometry" />
        </mxCell>
        <mxCell id="cEEI7wRpShsSlFW6rlsJ-12" value="Password:" style="text;html=1;align=center;verticalAlign=middle;whiteSpace=wrap;rounded=0;" parent="1" vertex="1">
          <mxGeometry x="270" y="350" width="60" height="30" as="geometry" />
        </mxCell>
        <mxCell id="cEEI7wRpShsSlFW6rlsJ-14" value="Guest login" style="text;html=1;align=center;verticalAlign=middle;whiteSpace=wrap;rounded=0;shadow=0;" parent="1" vertex="1">
          <mxGeometry x="384" y="480" width="76" height="30" as="geometry" />
        </mxCell>
        <mxCell id="cEEI7wRpShsSlFW6rlsJ-15" value="Create account" style="text;html=1;align=center;verticalAlign=middle;whiteSpace=wrap;rounded=0;" parent="1" vertex="1">
          <mxGeometry x="384" y="520" width="88" height="20" as="geometry" />
        </mxCell>
        <mxCell id="cEEI7wRpShsSlFW6rlsJ-16" value="" style="rounded=1;whiteSpace=wrap;html=1;" parent="1" vertex="1">
          <mxGeometry x="384" y="287.5" width="150" height="35" as="geometry" />
        </mxCell>
        <mxCell id="cEEI7wRpShsSlFW6rlsJ-17" value="" style="rounded=1;whiteSpace=wrap;html=1;" parent="1" vertex="1">
          <mxGeometry x="384" y="360" width="156" height="30" as="geometry" />
        </mxCell>
        <mxCell id="VObQcnwBqhXJ-2NUPKxU-1" value="Submit" style="rounded=1;whiteSpace=wrap;html=1;" vertex="1" parent="1">
          <mxGeometry x="501" y="410" width="74" height="30" as="geometry" />
        </mxCell>
        <mxCell id="VObQcnwBqhXJ-2NUPKxU-2" value="Exit" style="rounded=1;whiteSpace=wrap;html=1;" vertex="1" parent="1">
          <mxGeometry x="280" y="410" width="70" height="30" as="geometry" />
        </mxCell>
      </root>
    </mxGraphModel>
  </diagram>
</mxfile>
